<svg height="285" viewBox="0 0 289 285" width="289" xmlns="http://www.w3.org/2000/svg" xmlns:xlink="http://www.w3.org/1999/xlink"><defs><path id="a" d="m86 50h149c1.656854 0 3 1.3431458 3 3v166 29c0 1.656854-1.343146 3-3 3h-149c-1.6568542 0-3-1.343146-3-3v-195c0-1.6568542 1.3431458-3 3-3z"/><mask id="b" fill="#fff" height="201" width="155" x="0" y="0"><use xlink:href="#a"/></mask></defs><g fill="none" fill-rule="evenodd" transform="translate(3 3)"><use style="stroke:#434445;stroke-width:8;stroke-linecap:square;stroke-linejoin:round;stroke-dasharray:2 7 2 14;mask:url(#b)" xlink:href="#a"/><path d="m118 81h149c1.656854 0 3 1.3431458 3 3v166 29c0 1.656854-1.343146 3-3 3h-149c-1.656854 0-3-1.343146-3-3v-195c0-1.6568542 1.343146-3 3-3z" fill="#e8e9ea"/><text fill="#808080" font-family="ArialRoundedMTBold, Arial Rounded MT Bold" font-size="70"><tspan x="173" y="208">?</tspan></text><g style="stroke:#434445;stroke-linejoin:round;fill:#e8e9ea;stroke-width:6;stroke-linecap:round;stroke-dasharray:1 9 7 11"><circle cx="267.5" cy="15.5" r="15.5"/><circle cx="18" cy="184" r="18"/></g></g></svg>