<?xml version="1.0" encoding="UTF-8" standalone="no"?>
<svg width="231px" height="256px" viewBox="0 0 231 256" version="1.1" xmlns="http://www.w3.org/2000/svg" xmlns:xlink="http://www.w3.org/1999/xlink">
    <!-- Generator: Sketch 48.2 (47327) - http://www.bohemiancoding.com/sketch -->
    <title>Group</title>
    <desc>Created with Sketch.</desc>
    <defs></defs>
    <g id="Page-1" stroke="none" stroke-width="1" fill="none" fill-rule="evenodd">
        <g id="Group">
            <path d="M30,0 L201,-3.55271368e-15 C217.568542,8.11951633e-15 231,13.4314575 231,30 L231,162.461961 C231,172.177831 226.294743,181.2921 218.374061,186.918903 L127.082707,251.771717 C120.146889,256.698879 110.853111,256.698879 103.917293,251.771717 L12.6259395,186.918903 C4.70525696,181.2921 8.29527829e-15,172.177831 7.10542736e-15,162.461961 L-3.55271368e-15,30 C-5.58177493e-15,13.4314575 13.4314575,3.04359188e-15 30,0 Z" id="Path" fill="#2E2F30"></path>
            <path d="M128.749957,51.3270824 L82.0917902,81.8960219 C81.1678589,82.5013522 80.9095817,83.7410636 81.514912,84.6649949 C81.7806923,85.0706624 82.1848225,85.3659355 82.6520772,85.495852 L114.860352,94.4511049 C115.924552,94.7469972 116.547388,95.8495698 116.251496,96.9137697 C116.139556,97.3163705 115.904323,97.6737972 115.578833,97.935854 L80.7458289,125.980355 C79.8854551,126.673053 79.749527,127.932066 80.4422251,128.79244 C81.0249855,129.516265 82.0295284,129.743344 82.8669621,129.340558 L148.95868,97.5519926 C149.954095,97.0732212 150.372918,95.8781567 149.894146,94.8827413 C149.667832,94.412211 149.266485,94.0488389 148.775848,93.8702557 L112.898731,80.8116223 C111.860779,80.4338263 111.325617,79.2861359 111.703414,78.2481841 C111.781613,78.03334 111.896072,77.8334951 112.041815,77.6573359 L131.38698,54.2749165 C132.091093,53.4238587 131.97197,52.1631441 131.120913,51.4590316 C130.445047,50.8998625 129.483694,50.846361 128.749957,51.3270824 Z" id="Path-2" fill="#25C782"></path>
        </g>
    </g>
</svg>