<svg height="256" viewBox="0 0 231 256" width="231" xmlns="http://www.w3.org/2000/svg"><g fill="none" fill-rule="evenodd"><path d="m30 0h171c16.568542 0 30 13.4314575 30 30v132.461961c0 9.71587-4.705257 18.830139-12.625939 24.456942l-91.291354 64.852814c-6.935818 4.927162-16.229596 4.927162-23.165414 0l-91.2913535-64.852814c-7.92068254-5.626803-12.6259395-14.741072-12.6259395-24.456942v-132.461961c0-16.5685425 13.4314575-30 30-30z" fill="#2e2f30"/><path d="m128.749957 51.3270824-46.6581668 30.5689395c-.9239313.6053303-1.1822085 1.8450417-.5768782 2.768973.2657803.4056675.6699105.7009406 1.1371652.8308571l32.2082748 8.9552529c1.0642.2958923 1.687036 1.3984649 1.391144 2.4626648-.11194.4026008-.347173.7600275-.672663 1.0220843l-34.8330041 28.044501c-.8603738.692698-.9963019 1.951711-.3036038 2.812085.5827604.723825 1.5873033.950904 2.424737.548118l66.0917179-31.7885654c.995415-.4787714 1.414238-1.6738359.935466-2.6692513-.226314-.4705303-.627661-.8339024-1.118298-1.0124856l-35.877117-13.0586334c-1.037952-.377796-1.573114-1.5254864-1.195317-2.5634382.078199-.2148441.192658-.414689.338401-.5908482l19.345165-23.3824194c.704113-.8510578.58499-2.1117724-.266067-2.8158849-.675866-.5591691-1.637219-.6126706-2.370956-.1319492z" fill="#25c782"/></g></svg>