<svg height="138" viewBox="0 0 211 138" width="211" xmlns="http://www.w3.org/2000/svg"><g fill="none" fill-rule="evenodd" transform="translate(0 -1)"><rect fill="#25c782" height="141" rx="3" transform="matrix(.70710678 .70710678 -.70710678 .70710678 89.441865 -78.931764)" width="52" x="114" y="-2"/><path d="m47.7157108 46.7856448 41.9466213 89.3645412c.4693394.999897.0392375 2.190948-.9606596 2.660288-.2659156.124817-.5560618.189526-.8498143.189526h-85.70371639c-1.1045695 0-2-.895431-2-2 0-.293752.06470859-.583899.18952612-.849814l41.94662127-89.3645412c.7040092-1.4998457 2.4905865-2.1449986 3.9904322-1.4409894.6337546.2974766 1.1435128.8072349 1.4409894 1.4409894z" fill="#5d91ff"/><circle cx="181" cy="107" fill="#fb5c5e" r="30"/><rect fill="#ff8b11" height="36" rx="3" transform="matrix(.95105652 -.30901699 .30901699 .95105652 -15.71736 26.902438)" width="36" x="59.068974" y="45.068974"/></g></svg>