<?xml version="1.0" encoding="UTF-8" standalone="no"?>
<svg width="64px" height="75px" viewBox="0 0 64 75" version="1.1" xmlns="http://www.w3.org/2000/svg" xmlns:xlink="http://www.w3.org/1999/xlink">
    <!-- Generator: Sketch 48.2 (47327) - http://www.bohemiancoding.com/sketch -->
    <title>Group</title>
    <desc>Created with Sketch.</desc>
    <defs></defs>
    <g id="Page-1" stroke="none" stroke-width="1" fill="none" fill-rule="evenodd">
        <g id="Group" transform="translate(-5.000000, -5.000000)" fill="#FFF">
            <path d="M68.7785874,16.8327478 L48.9435606,16.8327478 C45.3537097,16.8327478 42.4435606,19.7428969 42.4435606,23.3327478 C42.4435606,26.9225986 45.3537097,29.8327478 48.9435606,29.8327478 L68.7785874,29.8327478 C66.4820278,34.005374 62.0429784,36.8327478 56.9435606,36.8327478 L45.9435606,36.8327478 C38.4877164,36.8327478 32.4435606,30.7885919 32.4435606,23.3327478 C32.4435606,15.8769036 38.4877164,9.83274776 45.9435606,9.83274776 L56.9435606,9.83274776 C62.0429784,9.83274776 66.4820278,12.6601215 68.7785874,16.8327478 Z" id="Combined-Shape" transform="translate(51.443561, 23.332748) rotate(127.000000) translate(-51.443561, -23.332748) "></path>
            <path d="M5.22141263,68.1672522 L26.0564394,68.1672522 C29.6462903,68.1672522 32.5564394,65.2571031 32.5564394,61.6672522 C32.5564394,58.0774014 29.6462903,55.1672522 26.0564394,55.1672522 L5.22141263,55.1672522 C7.51797219,50.994626 11.9570216,48.1672522 17.0564394,48.1672522 L28.0564394,48.1672522 C35.5122836,48.1672522 41.5564394,54.2114081 41.5564394,61.6672522 C41.5564394,69.1230964 35.5122836,75.1672522 28.0564394,75.1672522 L17.0564394,75.1672522 C11.9570216,75.1672522 7.51797219,72.3398785 5.22141263,68.1672522 Z" id="Combined-Shape" transform="translate(22.556439, 61.667252) rotate(127.000000) translate(-22.556439, -61.667252) "></path>
            <rect id="Rectangle" transform="translate(37.000000, 42.500000) rotate(127.000000) translate(-37.000000, -42.500000) " x="11" y="40" width="52" height="5" rx="2.5"></rect>
        </g>
    </g>
</svg>