<svg height="64" viewBox="0 0 230 230" width="64" xmlns="http://www.w3.org/2000/svg"><g fill="none" fill-rule="evenodd"><circle cx="115" cy="115" fill="#00d19a" r="115"/><g transform="translate(66 58)"><path d="m7 53.0002737v58.7175513c0 1.656854 1.34314575 3 3 3h84.9812692c1.6568543 0 3-1.343146 3-3 0-.985411-.4839279-1.907988-1.2946411-2.468148l-84.9812692-58.7175506c-1.3631201-.9418437-3.23166247-.6003317-4.17350618.7627884-.34634223.5012573-.53185272 1.0960873-.53185272 1.7053589z" fill="#a2f5d0"/><path d="m98.3337826 97.1264912v-44.1264912c0-1.6568542-1.3431457-3-3-3-.5302854 0-1.0510956.1405594-1.5093755.4073594l-35.3332919 20.5702278c-1.4318759.8336051-1.9168701 2.6701403-1.083265 4.1020162.230204.3954193.5478046.7329438.928504.9867513l35.3332919 23.5562634c1.3785728.9190769 3.2411862.5465829 4.1602634-.8319904.3285504-.4928101.5038731-1.0718469.5038731-1.6641365z" fill="#a2f5d0"/><path d="m22 15h60c1.6568542 0 3 1.3431458 3 3v29.2288395c0 1.1003311-.6023685 2.1123664-1.5695657 2.6370168l-31.9091115 17.308911c-.9414939.5107079-2.0838511.4807196-2.9972533-.0786817l-28.0908884-17.2038979c-.8903591-.5452888-1.4331811-1.5142666-1.4331811-2.5583351v-29.3338526c0-1.6568542 1.3431458-3 3-3z" fill="#fff"/><rect fill="#00d19a" height="5" rx="2.5" width="23" x="25" y="21"/><g fill="#a2f5d0"><rect height="5" rx="2.5" width="55" x="25" y="30"/><rect height="5" rx="2.5" width="36" x="25" y="39"/></g></g></g></svg>